<svg xmlns="http://www.w3.org/2000/svg" viewBox="0 0 67.95 91.18"><defs><style>.cls-1{fill:#78bbd8;}.cls-2{fill:#abd0ef;}.cls-3{fill:#eab4c6;}.cls-4{fill:#f0b9c9;}.cls-5{fill:#d7a9c5;}.cls-6{fill:#f4bcca;}.cls-7{fill:#82c0db;}.cls-8{fill:#dcabc5;}.cls-9{fill:#bbd9ee;}.cls-10{fill:#b0cbe5;}.cls-11{fill:#a7cfed;}.cls-12{fill:#c2ddf3;}.cls-13{fill:#d0bacd;}.cls-14{fill:#e3bfcf;}.cls-15{fill:#e9bece;}.cls-16{fill:#77bbd7;}.cls-17{fill:#e39fa6;}.cls-18{fill:#92bad3;}.cls-19{fill:#89c4de;}.cls-20{fill:#f7c1cb;}.cls-21{fill:#aad0ee;}.cls-22{fill:#deacc4;}.cls-23{fill:#f8beca;}.cls-24{fill:#c1ddf5;}.cls-25{fill:#a3cbe6;}.cls-26{fill:#c4e0f2;}.cls-27{fill:#a5d0ea;}.cls-28{fill:#d2a8c6;}.cls-29{fill:#a8c0db;}.cls-30{fill:#c0aaca;}.cls-31{fill:#97c8e3;}.cls-32{fill:#e9c0cd;}.cls-33{fill:#afb3d1;}.cls-34{fill:#cba6c6;}.cls-35{fill:#cbe2f5;}.cls-36{fill:#9cc8ed;}.cls-37{fill:#fbc6cf;}.cls-38{fill:#fdd1d8;}.cls-39{fill:#f7cbd4;}.cls-40{fill:#afbcde;}.cls-41{fill:#cf839b;}.cls-42{fill:#cf7f90;}.cls-43{fill:#e0abbe;}.cls-44{fill:#e1a8ba;}.cls-45{fill:#d58e8d;}.cls-46{fill:#e3aec2;}.cls-47{fill:#d5c3d2;}.cls-48{fill:#9bc6e3;}.cls-49{fill:#ecc1cd;}.cls-50{fill:#dda3b5;}.cls-51{fill:#d48da1;}.cls-52{fill:#e1acc4;}.cls-53{fill:#d38d9b;}.cls-54{fill:#f3bfcc;}.cls-55{fill:#cce1f6;}.cls-56{fill:#a0c9ed;}.cls-57{fill:#d5b1cc;}.cls-58{fill:#c7aacb;}.cls-59{fill:#b3d4ed;}.cls-60{fill:#c4a3c7;}.cls-61{fill:#dab0c9;}.cls-62{fill:#c1ddf1;}.cls-63{fill:#a2cbe7;}.cls-64{fill:#dbb4cd;}.cls-65{fill:#90c3e0;}.cls-66{fill:#d8e9f7;}.cls-67{fill:#fcd9df;}.cls-68{fill:#c1dbf2;}.cls-69{fill:#cc7b80;}.cls-70{fill:#afd1ec;}.cls-71{fill:#d8969b;}.cls-72{fill:#dda1b3;}.cls-73{fill:#d8e8f8;}.cls-74{fill:#c4d1ec;}.cls-75{fill:#ddaec7;}.cls-76{fill:#e4c2d5;}.cls-77{fill:#bdd7ef;}.cls-78{fill:#daeaf7;}.cls-79{fill:#cbc8df;}.cls-80{fill:#b2b6d4;}.cls-81{fill:#dfebf8;}.cls-82{fill:#e1ebf7;}.cls-83{fill:#dccfdf;}.cls-84{fill:#d4e6f7;}.cls-85{fill:#b1d5ee;}.cls-86{fill:#e0ecf8;}.cls-87{fill:#d4abc8;}.cls-88{fill:#e8f1fa;}.cls-89{fill:#f1f7fc;}.cls-90{fill:#f9fbfd;}</style></defs><title>chinois1</title><g id="Calque_2" data-name="Calque 2"><g id="Calque_1-2" data-name="Calque 1"><path class="cls-1" d="M16.19,15.23c3.76-7,10-10.12,17.57-11a26.84,26.84,0,0,1,2.94-.37C39.27,3.77,40.41,2.59,40,0c2.93,1.4,4.45,5,8.14,5.19.68.86,2.06,1.06,2.25,2.39a2.43,2.43,0,0,1-.42,1.33,7.66,7.66,0,0,1-3.75,2.26c-2.33.64-4.56-.25-6.81-.54-6-.74-11.26,1.67-16.62,3.68a7,7,0,0,0-3,1.28,4.18,4.18,0,0,1-2.35,1A1.59,1.59,0,0,1,16.19,15.23Z"/><path class="cls-2" d="M62,48.19c0,.31,0,.61,0,.92a2.43,2.43,0,0,1-1.89,1c-1.48-.09-2.88.84-4.38.34-1.86-.69-4,.26-5.74-1-.68-2,1.06-2.06,2.17-2.4,1.74-.55,3.48-1,4.19-3-4.83,1.49-9,5.74-14.68,3.23a2.79,2.79,0,0,1-.15-2.83,3.15,3.15,0,0,1,2-1.35c5.16-1,8.89-3.79,10.84-8.81A5.66,5.66,0,0,1,56,32.51a4.44,4.44,0,0,1,2-1A2.77,2.77,0,0,1,60,32c.69,1.36-.17,2.53-.51,3.74-.68,2.38.33,3.74,2.48,4.51,1.36,2.1-.48,3.73-.82,5.58C61,46.76,61.62,47.43,62,48.19Z"/><path class="cls-3" d="M13,73.13,19.94,68a2.86,2.86,0,0,1,1.43,2.13,1.92,1.92,0,0,1-.74,1.49c-.86.94.39.79.65,1.17a3.45,3.45,0,0,1,1.35,2,4.78,4.78,0,0,1,0,1.31c-.54,3.16,1.16,2.22,2.75,1.51a2.27,2.27,0,0,1,2.79,1.58,31.93,31.93,0,0,1-7.1,6.92c-1.6.45-2.21-.58-2.71-1.79,1.61-2.49-1.23-2.49-2-3.61C15.16,78.24,12.63,76.31,13,73.13Z"/><path class="cls-4" d="M19,84.14a3.53,3.53,0,0,0,2,2c-.82,1.68-2.5,2.21-4,3-4.82-1.46-9.19-9.08-8-14a6.23,6.23,0,0,1,4-2l4,7.05C15.79,82.45,18.53,82.73,19,84.14Z"/><path class="cls-5" d="M25.91,61c.38-1.57.83-3.17,2.81-1.48A8.26,8.26,0,0,0,33,61.66c3.49,3.21,5.27,6.57.91,10.47-2.32.48-3.41-1.45-4.93-2.53C27.52,66.88,24.6,64.68,25.91,61Z"/><path class="cls-6" d="M9,75.16a24.9,24.9,0,0,0,8,14l-2.05,2c-3-.42-4.33-2.91-6-4.93-1-1.89-2.56-3.38-3.36-5.35C5,79.32,3.73,77.6,6,76.22Z"/><path class="cls-7" d="M63.05,13c2.72,2.45,3.36,5.79,3.92,9.17A2.55,2.55,0,0,1,64.9,24a3.56,3.56,0,0,1-2.08-.29c-2.1-2.08-4-4.42-6.46-6.09a5.21,5.21,0,0,1-1.31-2.55,3.67,3.67,0,0,1,.57-2.79C58.26,10.93,60.45,13.92,63.05,13Z"/><path class="cls-8" d="M30,69.16l3.92,3c-1.55,2.67-3.17,5.28-5.76,7.11l-3-1.11-.36-.32a2.08,2.08,0,0,1,0-1c0-.32,0-.65,0-1a4.72,4.72,0,0,1-.06-1.59c.1-.16.21-.31.32-.47a6.14,6.14,0,0,1,1.07-.58C28.12,72.55,28.73,70.54,30,69.16Z"/><path class="cls-9" d="M59.93,46.19q1-3,2-5.91c0-.23,0-.46,0-.69.51-2,.56-4.12,2.07-5.75,1.65-.67,2.76.18,3.75,1.35-1,2.3-1.11,5-2.73,7.06-.38.7-1.7-.45-1.85,1.2S62.13,46.62,59.93,46.19Z"/><path class="cls-10" d="M62.94,23.19l2,0c.86,1.4.61,3.6,2.85,4v2.95c-1.6.88-2.12,3.06-4.12,3.46-1.53-.29-2.41-1.41-3.29-2.54a4,4,0,0,1-.14-2.86C61.21,26.6,61.47,24.58,62.94,23.19Z"/><path class="cls-11" d="M55.92,50.17l4-1c.54,1.06-.34,1.39-1,1.85l-20,.26a4.73,4.73,0,0,0-.92-.21c.59-2.79,2.92-2.16,4.73-2.27C47.22,48.57,51.55,49.64,55.92,50.17Z"/><path class="cls-12" d="M59.93,46.19c2.64-.09,1.31-5.3,5.08-3.94-.19,2.39-.85,4.54-3,5.94C61,47.84,58.58,49,59.93,46.19Z"/><path class="cls-13" d="M54,7c3,.06,5.64.91,6.95,4-1.57,1.44-3.35.93-5.12.55A4.42,4.42,0,0,1,53.39,9,2.06,2.06,0,0,1,54,7Z"/><path class="cls-14" d="M67.82,27.26c-1,.38-2.21,1.41-3.2.52-1.65-1.49.46-3,.34-4.54l2-1C68.51,23.68,67.76,25.54,67.82,27.26Z"/><path class="cls-15" d="M63.92,33.24c0-2.72,1.42-3.54,3.9-3,0,1.66,0,3.32-.08,5l-3.81-1a.62.62,0,0,1-.23-.65C63.77,33.35,63.84,33.24,63.92,33.24Z"/><path class="cls-16" d="M55.88,11.15l5-.12c.71.67,1.42,1.34,2.14,2-2.69,2.74-4.74,0-7-.81a.82.82,0,0,1-.28-.69C55.77,11.27,55.82,11.15,55.88,11.15Z"/><path class="cls-17" d="M33,60.69c1.06-1.91,1-4.72,4-5C37.43,58.75,36.05,60.41,33,60.69Z"/><path class="cls-18" d="M54,7l.15,2.3c-.27,1.11-.6,2.13-2.08,1.91a6.69,6.69,0,0,1-2.09-3.08c0-.26,0-.53,0-.8.43-1,1.27-1,2.17-1Z"/><path class="cls-19" d="M59,51.06l1-1.85,2.06-.1C62.72,52.41,60.26,50.79,59,51.06Z"/><path class="cls-20" d="M52.09,6.34c-.47.89-1.34.93-2.17,1-.83-.54-1.66-1.08-1.81-2.18C49.49,5.4,51.11,4.78,52.09,6.34Z"/><path class="cls-2" d="M34.91,49.22H30a3.19,3.19,0,0,1-3.64.53,1.29,1.29,0,0,1-.69-1.22c.48-.71,1-1.24,1.93-.57-1.57-1.25-4.44-.78-4.9-3.56A34,34,0,0,1,26,40c2-.3,3.57,1.13,5.42,1.42,3,.77,6.28.7,9.17,2.12,1.9.89-.38,3.38,1.63,4.24,1.21.69,1.51,1.35-.09,1.91C39.72,49.13,37.21,50.87,34.91,49.22Z"/><path class="cls-21" d="M26,48.18v1c-.94,1.48-3.1.5-4,2-1,0-2.23.32-2.69-.68-2.71-5.87-6.63-11.35-6.17-18.28a1.79,1.79,0,0,1,1-1c.31-.09,1.15-.24,1.09-.41a7.16,7.16,0,0,1,0-3.87c.7-1.21.78-3.22,3.06-2.42,1.29,3.42-.52,6.9.2,10.33,0,3.41,3.9,1.71,5,3.75A8.56,8.56,0,0,1,22.42,44c.26,1-4.1.35-.79,2.37C23,47.2,24.87,46.78,26,48.18Z"/><path class="cls-22" d="M30,69.16c.07,3.39-1.06,5.59-5,5a6.79,6.79,0,0,1-1.83-1.67,17.89,17.89,0,0,1-2.13-2.31c-.91-.45-1-1.3-1.1-2.16q3-3.53,6-7C26.39,64.15,28.64,66.43,30,69.16Z"/><path class="cls-23" d="M6,76.22c-1.27,4,3.09,6.36,3,10C6.17,83.61,3.36,81,0,77.8Z"/><path class="cls-24" d="M34.91,49.22l8.06,0c2.33-1.24,4.65-1.82,7,0,2,.36,4.23-.8,6,1-5.94.58-12-1.2-17.87.94C37,50.53,34.12,52.91,34.91,49.22Z"/><path class="cls-25" d="M18,24.25l-2,3c-1.59-1.5-1.57,1.85-2.95,1,.19-2.35-.77-4.83.81-7,1.27-.17,2.22-1.24,3.54-1.3a1.47,1.47,0,0,1,1.09.64,3.5,3.5,0,0,1,0,3.27Z"/><path class="cls-26" d="M22,51.14c-.21-3.77,2.8-1.08,4-2l4,.06c.29,1,.53,2-1.11,2C26.61,51.13,24.3,51.15,22,51.14Z"/><path class="cls-27" d="M13.07,28.19c.88-.65,1.5-2.08,2.95-1v5.9c-1.12.06-1.5-2.23-2.9-.93C13.1,30.85,13.09,29.52,13.07,28.19Z"/><path class="cls-28" d="M18,20.24c-1.43.15-2.2,3.19-4.16.94l.21-1C15.43,18.74,16.77,16.93,18,20.24Z"/><path class="cls-29" d="M18,20.24c-1.29-1.78-2.62-.58-3.95-.06a2.11,2.11,0,0,1,.84-2.08A3.52,3.52,0,0,1,18,17.46,1.9,1.9,0,0,1,19.33,20a.86.86,0,0,1-1.34.24Z"/><path class="cls-30" d="M18,18.17l-3-.07,1.26-2.87.85.93C17.74,16.65,18.56,17.09,18,18.17Z"/><path class="cls-31" d="M20.93,13.31C26.7,12.23,31.77,8.52,38,9.13c2.94.29,5.76,1.66,8.79,1.06a2.25,2.25,0,0,1,.82,2.11,2.61,2.61,0,0,1-.71,1.35c-1.66,1.14-3.33.71-5.2.45-5.2-.71-10.55-1.8-15.39,1.51a17,17,0,0,1-4,3,3.45,3.45,0,0,1-1.43.16,1.66,1.66,0,0,1-1.3-1.51A10.47,10.47,0,0,1,20.93,13.31Z"/><path class="cls-32" d="M46.93,12.32c0-.71-.07-1.42-.1-2.13l3.1-2c2,.16,2.1,1.55,2,3.08-.07.2-.14.4-.2.61a4,4,0,0,1-1.46,1.23A2.29,2.29,0,0,1,46.93,12.32Z"/><path class="cls-33" d="M20,17.26l1,1c.59,1-.06,1.62-.77,2.19A1.28,1.28,0,0,1,19,20.19a2.07,2.07,0,0,0-1-2l-.93-2,1.9-1A2.23,2.23,0,0,1,20,17.26Z"/><path class="cls-34" d="M20,17.26a2.3,2.3,0,0,1-1.1-2.12l2-1.83C21,14.71,21.43,16.19,20,17.26Z"/><path class="cls-35" d="M56.89,33.17c-.8,1-2,1.88-2.34,3-2,6.27-7,7.6-12.59,8-.11-.21-.21-.42-.31-.63a4.57,4.57,0,0,1,1.5-3.79c3.87-1.16,7-3.24,8.8-7a4.75,4.75,0,0,1,2.9-.61A3.26,3.26,0,0,1,56.89,33.17Z"/><path class="cls-36" d="M50,49.17H43a2.09,2.09,0,0,0-2-1c-.32-1,0-1.28,1-1,5.9.44,10.62-3.09,16-5.41C57.13,46.55,57.13,46.55,50,49.17Z"/><path class="cls-37" d="M62,40.28c-3,1.66-4.09.6-4.13-2.67,0-2.18,1-3.75,2.09-5.4a1.66,1.66,0,0,1,1.63-.3c2.21,2.64,1.45,5.41.35,8.19Z"/><path class="cls-38" d="M56.89,33.17l-2,0c-1.44-1.84-3.37-3.51-2-6.26A3.28,3.28,0,0,1,56,26.66c2,1.37,3.55,2.91,1.9,5.54Z"/><path class="cls-39" d="M57.93,32.2c.42-2.1-1.1-3.43-2-5a3.09,3.09,0,0,1,2.12-1c1.28.15,2.81,0,2.79,2,0,1.05,0,2.09.07,3.13.35.2.47.4.36.61s-.23.32-.35.32h-3Z"/><path class="cls-40" d="M42,47.18l-1,1c-1.78-1.33.37-2.64,0-4a.68.68,0,0,1,1-.07l0,.06C42,45.2,42,46.19,42,47.18Z"/><path class="cls-41" d="M25.12,78.13c-1.07.59-.47,3.5-2.72,2.07-.23-.15-3.69-2.43-.4-4.07l.46-.41c.2,0,.4.09.6.12a4.12,4.12,0,0,1,.89.83,16.59,16.59,0,0,0,1,1.49Z"/><path class="cls-42" d="M19,84.14c-1.43-.93-6.77.11-2-4C18.58,81,20.13,81.92,19,84.14Z"/><path class="cls-43" d="M23.93,72.13a2.1,2.1,0,0,1,1.08,2h0a3.33,3.33,0,0,1-1.93,1.35A1,1,0,0,1,22,75.15l-1-2a.9.9,0,0,1,.08-1.33A2.41,2.41,0,0,1,23.93,72.13Z"/><path class="cls-44" d="M21,72.19c0,.33,0,.65,0,1-1.15-.21-3,.58-3.29-.82-.36-1.67,1.45-1,2.37-1.16A1.76,1.76,0,0,1,21,72.19Z"/><path class="cls-45" d="M21,72.19l-.93-1,1-1a2.75,2.75,0,0,1,2.89,2Z"/><path class="cls-46" d="M22,75.15h1a.73.73,0,0,1,0,.93l-1,0C22,75.8,22,75.48,22,75.15Z"/><path class="cls-47" d="M60.84,28.15c-.72-1.16-1.93-.9-3-1a6.66,6.66,0,0,1-1.73-1.3A8.42,8.42,0,0,1,55,19.4,2.71,2.71,0,0,1,57,17.31a8.67,8.67,0,0,1,6,5.88C62.84,25.1,63.34,27.26,60.84,28.15Z"/><path class="cls-48" d="M57,17.31l-1.14,1.91c-.33.6-.55,1.32-1.42,1.35-3-1.91-6.57-3.27-7.44-7.35l0-.9a3.76,3.76,0,0,0,3.06.16c1.35.36,1.55,2.64,3.47,2a2.69,2.69,0,0,1,2.38.54Z"/><path class="cls-49" d="M55.84,15.07l-2.86.1c-1.81-.95-2.18-2.27-1-4l0,.06,2.16-1.92c.6.6,1.2,1.2,1.79,1.81L56,12.22C56,13.17,55.9,14.12,55.84,15.07Z"/><path class="cls-50" d="M23,76.08c0-.31,0-.62,0-.93a2.07,2.07,0,0,1,2-1l.05,1c-.06.18-.12.35-.17.53a2.72,2.72,0,0,1-.83.72,1.1,1.1,0,0,1-1-.13Z"/><path class="cls-51" d="M25,78.16a2.1,2.1,0,0,1-2-1,1.49,1.49,0,0,1,1-.52l.58.09.41.43Z"/><path class="cls-52" d="M25.05,75.16l1,1a.73.73,0,0,1-1,.1.84.84,0,0,1,0-1.06Z"/><path class="cls-53" d="M25,76.16l1,0c-.33.35-.67.69-1,1h0l-.42-.49Z"/><path class="cls-54" d="M60.92,32.21c0-.31,0-.62,0-.93,1.61-.28,2,1.33,3,2,0,.33,0,.66,0,1,0,2.2.1,4.43-2,5.88C61.52,37.47,62.91,34.63,60.92,32.21Z"/><path class="cls-55" d="M42,44.14l-1,.07c-3.37-.42-6.8-.56-10-2-.25-1.95-1.54-3.38-2.49-5a3.16,3.16,0,0,1,0-2,22.3,22.3,0,0,1,2.81-3.81,2.22,2.22,0,0,1,1.17-.66A3.67,3.67,0,0,1,36,33.64c1,3.27,3.61,4.84,6.54,6,.14.17.29.34.43.52A6.52,6.52,0,0,1,42,44.14Z"/><path class="cls-56" d="M26,48.18c-5.91,0-5.91,0-8-5.31l4,1.3a.57.57,0,0,1,1,.13l5.76,3.59Z"/><path class="cls-57" d="M29,37.11c1.6,1.35,4.25,2.3,2,5.15-2.08.33-3.41-1.19-5-2.07a2.7,2.7,0,0,1-.81-1.39C25.4,35.84,26.29,34.38,29,37.11Z"/><path class="cls-58" d="M26,39.17v1c.14,2.19-.48,3.83-3,4.1a6.14,6.14,0,0,0-1-.12c-.11-2.05-.28-4.1.94-5.94A.94.94,0,0,1,23,37C25.28,36,25.23,38.14,26,39.17Z"/><path class="cls-59" d="M17,36.2a44.38,44.38,0,0,1,1-12l0,0c1.22-.44,1.93.21,2.49,1.17.17,3.22-.26,6.44-.18,9.66A2.67,2.67,0,0,1,17,36.2Z"/><path class="cls-60" d="M17,36.2,20,35.08a1.85,1.85,0,0,1,2-.24c.82.56,1.51,1.18,1.05,2.33l0,1.06C20.76,38.25,18.1,39.55,17,36.2Z"/><path class="cls-61" d="M20,25.19l-2-1,0-4,1,0,1,0c.79-.47,1.09.09,1.38.66C21.54,22.51,22.25,24.33,20,25.19Z"/><path class="cls-62" d="M22,18.14l3-2.91c6.24-3.21,14.57-2.61,19.3,1.39A6,6,0,0,1,45,20.69a3.87,3.87,0,0,1-.61,1.45c-2,1.5-3.68.17-5.29-.88s-2.62-2.45-4.35-3.08c-3.91-2-7.13.51-10.56,1.62A2.2,2.2,0,0,1,22,18.14Z"/><path class="cls-63" d="M43.94,17.24c-6-3.61-12.37-3.73-18.94-2,5.17-5,11.44-3,17.29-2.35,1.53.17,3.13,0,4.67.34l8,7c.82,3.08-.89,2.24-2.47,1.59-2.58-1.07-4-3.77-6.7-4.66C45.15,17.21,44.55,17.24,43.94,17.24Z"/><path class="cls-64" d="M22,18.14l2,1.07c.86,1.22.34,2-.8,2.58a2.12,2.12,0,0,1-2.2-.68l-1-.89,1-2Z"/><path class="cls-65" d="M52,11.2a7,7,0,0,0,1,4c-2.36.61-2.58-1.15-3-2.7Z"/><path class="cls-66" d="M52,33.15c-.6,5.41-4.24,6.94-9,7.05h0c-.6-.82-.28-1.66-.08-2.51a3.61,3.61,0,0,1,1-1.71,3.84,3.84,0,0,1,1.3-.29c3.76.66,2.93-4.12,5.61-4.73C51.75,31.38,52.33,32,52,33.15Z"/><path class="cls-67" d="M52,33.15,50.9,31.24a2.35,2.35,0,0,1-.71-1.91A3.06,3.06,0,0,1,51.67,27a1.27,1.27,0,0,1,1.28.25c.06,2.17,2.6,3.5,2,5.9Z"/><path class="cls-68" d="M53,27.29l-.49,0H52c-2.35-.79-4-2.86-6.31-3.69a3.14,3.14,0,0,1-1.16-2.51A3.47,3.47,0,0,1,44.88,19a3.23,3.23,0,0,1,2.81-.45c3.64,1.9,6.43,4.82,9.25,7.71l.89.91-1.9.08Z"/><path class="cls-69" d="M24,77.15H23v-.87a3.59,3.59,0,0,1,1-.1l.44.48Z"/><path class="cls-70" d="M56.94,26.21c-4-1-5.69-5.05-9-7-.93-.82-2.34-1.06-2.87-2.36-.05-.21-.09-.41-.14-.62,3-1.92,3.27,1.66,4.93,2.43s2.6,3.52,5,1.55l.89-1A19.55,19.55,0,0,0,56.94,26.21Z"/><path class="cls-71" d="M25,75.15v1h0a.61.61,0,0,1-1,0v0Z"/><path class="cls-72" d="M24,76.15h1v1H24Z"/><path class="cls-73" d="M44,38.19l-1,2c-4.19.42-6.65-2-7.8-5.51a5.4,5.4,0,0,0-3.12-3.47A1.52,1.52,0,0,1,31.67,30a4.51,4.51,0,0,1,1-1.78c4.43-3.14,4.43-3.14,1.79-9.74A2,2,0,0,1,35,17.22c3.63.53,5,5,8.94,5,1.3,1.23,1.28,2.7.75,4.25A5.31,5.31,0,0,1,43,28.22c-3.89,3.12-4,4.45-.66,8.16A23,23,0,0,0,44,38.19Z"/><path class="cls-74" d="M23,37.17l-1-2,.24-.58c1.46-1,1.65-2.76,2.34-4.21,1.4-1,1.88.21,2.54,1a5.65,5.65,0,0,1,.48,1.17A15.67,15.67,0,0,0,29,35.28c0,.61,0,1.22,0,1.83-2.24-1.12-3.26-.46-3,2.06C25,38.54,24.51,37.09,23,37.17Z"/><path class="cls-75" d="M29,35.28c-2.31,0-3.58-.59-2-3.07,1.64-1.51,3.28-1.25,4.91,0A6.51,6.51,0,0,1,29,35.28Z"/><path class="cls-76" d="M32,32.23l-4.91,0-.13-.06c.8-2.92,2.57-3.28,5-1.9a6.32,6.32,0,0,0,.13,1Z"/><path class="cls-77" d="M21,21.11l2,.12c.81,2.25.29,4.6.51,6.9C22,30.29,23.2,33,22,35.22l0,0L20,35.08c-1.85-3.3-.79-6.6,0-9.89C21.34,24.08,20,22.32,21,21.11Z"/><path class="cls-78" d="M23,28.24a6.83,6.83,0,0,1,0-7,2.09,2.09,0,0,0,1-2c3.35-2.37,6.74-4.51,11-2v1c-1.12,1.24-2.64,1.27-4.11,1.31-2.65.06-4.44.9-4.52,4-.07,2.86,1.18,4.29,4,4.47A3.7,3.7,0,0,1,33,29.21l-1.07,1a6,6,0,0,0-5,1.9L25,30.23C23.85,30.05,22.64,29.93,23,28.24Z"/><path class="cls-79" d="M43.94,27.22c0-1.66,0-3.32,0-5,0-.35,0-.7.07-1.06.35-.42.67-.4,1,0l1,2a2.45,2.45,0,0,1-1.27,4.21Z"/><path class="cls-80" d="M45,21.22c-.33,0-.65,0-1,0,0-1.31,0-2.62-.05-3.94l1-1h0a2.28,2.28,0,0,1,.06,3Z"/><path class="cls-81" d="M44,38.19c-2.82-1-5.36-2.22-5.14-5.86.2-3.21,1.57-5.26,5.12-5.11l.05,0a7.7,7.7,0,0,1,0,9Z"/><path class="cls-82" d="M50.89,29.19c0,.68,0,1.37,0,2-2,1.66-.42,7.58-5.95,4.94l.3-.57c2.48-1.82.58-2.8-.74-3.89a6.15,6.15,0,0,1,1.28-4.62C48.05,26.43,49.55,27.61,50.89,29.19Z"/><path class="cls-83" d="M46,27.22l-1,5c1.23,1.34.95,2.67,0,4v0l-1,0,0-9,1.93-1a.64.64,0,0,1,.26.67C46.11,27.1,46,27.22,46,27.22Z"/><path class="cls-84" d="M46,27.22c0-.34,0-.68,0-1,0-1,0-2,0-3C49,23,50.56,25,52,27.27c-.35.64-.71,1.28-1.07,1.92Z"/><path class="cls-85" d="M45,19.23l-.06-3a6.18,6.18,0,0,1,3,3Z"/><path class="cls-86" d="M33,29.21c-3-.14-6.58.9-7.85-3.28-1.45-4.75.77-7.6,5.88-7.71,1.32,0,2.64,0,4,0C39.39,24.72,39.2,25.77,33,29.21Z"/><path class="cls-87" d="M23,28.24l2,2c0,2.27.81,5-3,5C22,32.84,19.26,30.09,23,28.24Z"/><path class="cls-88" d="M45,36.2l0-4c1.4-.72,3.21-1.43,3.52.72S47,36,45,36.2Z"/><path class="cls-89" d="M30.53,27.23c-2.62-.16-4.5-1.38-4.4-4.18.08-2.49,1.8-3.79,4.28-3.8,2.71,0,4.52,1.35,4.45,4.13C34.79,25.89,33,27.06,30.53,27.23Z"/><path class="cls-90" d="M31.92,23.33c-.07,1.15-.59,1.86-1.81,1.67-1-.16-1.83-.77-1.73-1.91a1.82,1.82,0,0,1,2-1.68C31.64,21.38,31.91,22.27,31.92,23.33Z"/></g></g></svg>