<svg xmlns="http://www.w3.org/2000/svg" viewBox="0 0 74.92 71.17"><defs><style>.cls-1{fill:#e0eaf1;}.cls-2{fill:#afc0d3;}.cls-3{fill:#c4d3dd;}.cls-4{fill:#dfe9f0;}.cls-5{fill:#c3d2dc;}.cls-6{fill:#677a8f;}.cls-7{fill:#66798f;}.cls-8{fill:#708095;}.cls-9{fill:#738499;}.cls-10{fill:#8a99aa;}.cls-11{fill:#92a0b0;}.cls-12{fill:#8b9aab;}.cls-13{fill:#8393a5;}.cls-14{fill:#8f9eae;}.cls-15{fill:#96a4b4;}.cls-16{fill:#919faf;}.cls-17{fill:#c8d5df;}.cls-18{fill:#a3afbc;}.cls-19{fill:#8a9aab;}.cls-20{fill:#6e8096;}.cls-21{fill:#8a9bad;}.cls-22{fill:#8b9cad;}.cls-23{fill:#7d8ea1;}.cls-24{fill:#8b99ab;}</style></defs><title>origami1</title><g id="Calque_2" data-name="Calque 2"><g id="Calque_1-2" data-name="Calque 1"><path class="cls-1" d="M72.33,54,60.38,70a1.87,1.87,0,0,1-2,.47C50.65,67.8,44,63,36.92,59.22,26.31,53.53,15.65,47.92,5.41,41.56a1.59,1.59,0,0,1,.32-2l.67-.35c4.46-.28,8.54,2,13,2,1.63,1,3.39.42,5.11.44a4.55,4.55,0,0,1,1.32.21,21.38,21.38,0,0,0,6.31,2,41.41,41.41,0,0,1,6.66.85c2.48-.55,4.71.57,7,1.09a27.52,27.52,0,0,0,6.44,1.62c1.7.69,3.53.09,5.27.48,2.39,1.41,5.17,1.26,7.75,1.9a9,9,0,0,1,6.69,1.73C72.65,52.25,73.14,53.05,72.33,54Z"/><path class="cls-2" d="M71.32,52.16a7.9,7.9,0,0,0-6.08-1.07c-2.17-2.34-5.76-.79-8-2.91-1.63,1-3.26,1.76-5,.17-.7-1.32-2.66-1.55-2.89-3.29-.86-2.73-2.44-5.18-3.13-8a42.18,42.18,0,0,0-1.7-4.72q-3-8.1-6.11-16.2a6.81,6.81,0,0,1,4.73-.87c3.81,1.06,8,1,11.16,3.93q9.51,15.24,19,30.48C74.18,51.76,72.31,51.59,71.32,52.16Z"/><path class="cls-3" d="M5.5,41.13c7.66,2.75,14.26,7.52,21.36,11.33,10.59,5.68,21,11.68,31.5,17.54-7,1.42-14,.26-21,.61-2.13.11-4.27,0-6.4,0-2,.2-2.91-1.68-4.45-2.36L4.17,42.5C3.79,41.25,4.41,41,5.5,41.13Z"/><path class="cls-4" d="M45.44,46.21c-2.07,1.47-4.08-2.17-6.15-.06C37,43.76,33.77,45,31.12,44.05c-1.89-.52-3.92-.62-5.59-1.81l-1.07-.07c-3,.6-2.46-2.23-3.51-3.53a18.19,18.19,0,0,1-1.6-4.58l-2-2.81c.38-1.81-.54-3.32-1.16-4.9.23-2.78,2.07-1.06,3.26-1.16l4.05,1.12c.8,1.76,2.56,1.46,4,1.87l5.91,2.06a9.34,9.34,0,0,0,5.06,1.93l3.05,1.13c1,.69,2.15,1.12,2.66,2.33,1,3.43,3.75,6.46,2.53,10.43A.83.83,0,0,1,45.44,46.21Z"/><path class="cls-4" d="M51.31,0C59,3.76,65.16,9.7,72.3,14.23c.09,1.08-.54,1.47-1.48,1.45-6.57-.15-13.15.47-19.72-.31C48.74,10.22,49.39,5.1,51.31,0Z"/><path class="cls-5" d="M51.31,0l.06,15.08c-4,1.86-8.63,1.45-10.82-1C44.55,9.73,46.87,4.05,51.31,0Z"/><path class="cls-6" d="M40.55,14.11c3.44,2.26,7.21.69,10.82,1,7-.27,14,1.31,20.93-.85l2.14,1,0,1h-21c-3.4,1.86-6.8.23-10.19,0l-4.81-.12A2.62,2.62,0,0,1,40.55,14.11Z"/><path class="cls-7" d="M29.37,70.09l29-.09h2c-.53,1.53-1.86,1.11-2.91,1.11-9.35,0-18.71-.06-28.06-.1-.31-.19-.43-.39-.33-.61S29.27,70.09,29.37,70.09Z"/><path class="cls-8" d="M43.24,16.28H53.43c-.53,1.23.67,1.94.89,2.95Z"/><path class="cls-9" d="M43.14,35.32l-1.61-2c1.07-.12,2.28.24,3-.94,2.42.18,1.73,2.56,2.68,3.77C45.52,37.58,44.41,36.06,43.14,35.32Z"/><path class="cls-10" d="M21.2,38.21c.92,1.46,1.38,3.29,3.26,4-2.14,1.93-3.61.37-5.11-1,2.57-.2.64-2,1.09-3C20.71,37.77,21,37.8,21.2,38.21Z"/><path class="cls-11" d="M19.47,25.19c-.62,1.63-2.35-.65-3,.85a1,1,0,0,1-.24,1.52l-2-3.86A7.33,7.33,0,0,1,19.47,25.19Z"/><path class="cls-12" d="M71.32,52.16l2-2.46c2.33,2.08,2.08,3.56-1,4.34A1.79,1.79,0,0,0,71.32,52.16Z"/><path class="cls-13" d="M3.55,38.08c1,.12,2.28-.25,2.85,1.1l-.1-.12c-.94.87-2.12,1.45-2.83,2.57L1.26,39.35C1.23,37.5,2.27,37.57,3.55,38.08Z"/><path class="cls-14" d="M38.48,32.17a3.83,3.83,0,0,1-5.06-1.93C35.24,30.55,37.05,30.87,38.48,32.17Z"/><path class="cls-15" d="M16.23,27.56,16.47,26c.76,1.66,2.66,3.12.9,5.21Z"/><path class="cls-14" d="M27.51,28.18c-1.84.46-3.68.94-4-1.87Z"/><path class="cls-16" d="M21.2,38.21l-.76,0c-1.14-1.17-2.05-2.39-1.09-4.12C20.69,35.12,20.71,36.77,21.2,38.21Z"/><path class="cls-17" d="M3.47,41.63c-.32-2.25,1.19-2.47,2.83-2.57l-.8,2.07L4.17,42.5Z"/><path class="cls-18" d="M3.55,38.08c-.89.2-1.84.29-2.29,1.27-.7-.42-1.65-1.26-1.09-1.76C1.21,36.64,2.51,37.2,3.55,38.08Z"/><path class="cls-19" d="M29.37,70.09a7.23,7.23,0,0,0,0,.93c-1.6-.25-2.25-1.5-2.9-2.76C28,68.05,28.78,68.91,29.37,70.09Z"/><path class="cls-20" d="M45.44,46.21h1c1.11-1.05,2.31-1.76,3.88-1-.08,1.51,2.8,1.12,2,3.1C49.91,47.9,47.15,48.74,45.44,46.21Z"/><path class="cls-21" d="M57.23,48.18c2.67,1,6.24-.53,8,2.91C62.78,49.55,58.91,51.88,57.23,48.18Z"/><path class="cls-22" d="M31.34,43.3c2.46,1.5,6.31-.91,8,2.85l-8-1.15A1.11,1.11,0,0,1,31.34,43.3Z"/><path class="cls-23" d="M31.34,43.3c0,.57,0,1.13,0,1.7-1.75-1.31-4.68-.13-5.8-2.76Z"/><path class="cls-24" d="M50.27,45.25a6.49,6.49,0,0,1-3.89,1c0-4-2.81-7.06-3.24-10.89l4.08.82C47.6,39.39,50.37,41.84,50.27,45.25Z"/></g></g></svg>