<svg xmlns="http://www.w3.org/2000/svg" viewBox="0 0 310 307.77"><defs><style>.cls-1{fill:#fefefe;}.cls-2{fill:#28271f;}.cls-3{fill:#d3934b;}.cls-4{fill:#463218;}.cls-5{fill:#463118;}</style></defs><title>Fichier 2</title><g id="Calque_2" data-name="Calque 2"><g id="Calque_1-2" data-name="Calque 1"><path class="cls-1" d="M310,154A153.7,153.7,0,0,0,187.61,3.49C169.86-.2,152-1.22,134,1.66,125.6,3,123.18,7.24,125.91,15.2c10.77,31.31-7.23,62.05-40.07,68.3-5,1-8,3.57-8.76,8.62-2.83,18.77-14.48,30.67-30.73,38.65C36,135.87,24.91,136.69,13.58,134c-8.58-2-12.38.79-13.23,9.64a73.53,73.53,0,0,0-.34,8C.85,206.36,22.54,250.16,68.55,281c38.53,25.8,80.67,32.78,125.42,21.82C261.87,286.14,309.9,224.05,310,154Z"/><path class="cls-2" d="M310,154c-.1,70-48.13,132.1-116,148.74-44.75,11-86.9,4-125.42-21.82C22.54,250.16.85,206.36,0,151.61a71.08,71.08,0,0,1,.34-8C1.19,134.77,5,131.93,13.58,134c11.33,2.71,22.38,1.89,32.77-3.21,16.25-8,27.9-19.88,30.73-38.65.76-5.05,3.76-7.67,8.76-8.62,32.84-6.25,50.84-37,40.07-68.3-2.73-8-.31-12.19,8.1-13.54,18-2.88,35.85-1.86,53.61,1.83A153.7,153.7,0,0,1,310,154Zm-292.51-1.8c-1.68,50.16,26.59,102.6,83.57,127.25A137,137,0,0,0,271.26,80.11C238.52,29.34,183,13.27,144.89,18.1c0,9.33,1.52,19-.28,27.95C139.28,72.65,122.94,90.11,97,98.58c-1.85.61-4.18,2.44-4.65,4.15C83.39,135.78,49.28,155.47,17.49,152.24Z"/><path class="cls-3" d="M15,152.12c31.79,3.23,65.9-16.46,74.88-49.51.47-1.71,2.8-3.54,4.65-4.15C120.46,90,136.8,72.53,142.13,45.93c1.8-9,.29-18.62.29-27.95C180.54,13.15,236,29.22,268.78,80a136.48,136.48,0,0,1-10.26,161.48c-39.11,46.4-104.15,62-159.93,37.91C41.61,254.72,13.34,202.28,15,152.12Zm152.3-75.35a17,17,0,0,0,17.39,17c10-.11,18.09-8,17.87-17.37-.23-9.71-8-16.82-18.24-16.78C174.37,59.68,167.25,66.86,167.31,76.77ZM83.83,215.65A17.09,17.09,0,1,0,67,198,17.12,17.12,0,0,0,83.83,215.65Zm128.54-34.17a17.09,17.09,0,1,0,17.11,17.34A17.07,17.07,0,0,0,212.37,181.48ZM150,165.63A17.17,17.17,0,0,0,167.28,149c.15-9.23-7.9-17.41-17.22-17.5S133,139.3,133.11,149,140.24,165.62,150,165.63Zm87.59-17.09a17,17,0,0,0,17.56-16.78,17.36,17.36,0,0,0-16.68-17.36c-9.31-.33-17.41,7.54-17.52,17A16.81,16.81,0,0,0,237.58,148.54Zm-85.08,110a16.93,16.93,0,0,0,17.12-17.23,17.1,17.1,0,1,0-34.2.56A16.85,16.85,0,0,0,152.5,258.54Z"/><path class="cls-4" d="M167.49,76.9c-.07-9.92,7.06-17.1,17-17.14,10.28,0,18,7.07,18.24,16.78.22,9.38-7.88,17.26-17.87,17.37A17,17,0,0,1,167.49,76.9Z"/><path class="cls-4" d="M84,215.77a17.08,17.08,0,1,1,17.37-16.55A17.08,17.08,0,0,1,84,215.77Z"/><path class="cls-4" d="M212.54,181.61a17.08,17.08,0,1,1-17.09,16.82A17.07,17.07,0,0,1,212.54,181.61Z"/><path class="cls-5" d="M150.16,165.75c-9.75,0-16.81-7-16.88-16.68s7.6-17.55,16.95-17.46,17.37,8.27,17.22,17.5A17.17,17.17,0,0,1,150.16,165.75Z"/><path class="cls-5" d="M237.75,148.67a16.83,16.83,0,0,1-16.64-17.12c.11-9.49,8.21-17.36,17.53-17a17.36,17.36,0,0,1,16.67,17.36A17,17,0,0,1,237.75,148.67Z"/><path class="cls-5" d="M152.68,256.16c-9.47,0-17-6.82-17.09-15.45-.08-8.86,7.65-16.19,17.08-16.2,9.19,0,17,7.17,17.12,15.68C169.89,249.1,162.32,256.16,152.68,256.16Z"/></g></g></svg>